<svg id="Capa_1" enable-background="new 0 0 512 512" height="512" viewBox="0 0 512 512" width="512" xmlns="http://www.w3.org/2000/svg"><g><path d="m256 354.5c41.907 0 76-34.093 76-76s-34.093-76-76-76-76 34.093-76 76 34.093 76 76 76zm0-122c25.364 0 46 20.636 46 46s-20.636 46-46 46-46-20.636-46-46 20.636-46 46-46z"/><path d="m400.956 112.5-39.853-75h-210.207l-39.853 75h-111.043v362h512v-362zm-271.881 30 39.853-75h174.145l39.853 75h99.074v30h-140.9c-23.316-18.756-52.917-30-85.1-30s-61.785 11.244-85.1 30h-140.9v-30zm20.925 136c0-58.449 47.551-106 106-106s106 47.551 106 106-47.551 106-106 106-106-47.551-106-106zm-6.732 76h-113.268v-152h113.268c-14.685 21.712-23.268 47.872-23.268 76s8.583 54.288 23.268 76zm225.464-152h113.268v152h-113.268c14.685-21.712 23.268-47.872 23.268-76s-8.583-54.288-23.268-76zm-338.732 242v-60h140.9c23.316 18.756 52.917 30 85.1 30s61.785-11.244 85.1-30h140.9v60z"/></g></svg>