<svg id="Capa_1" enable-background="new 0 0 512.045 512.045" height="512" viewBox="0 0 512.045 512.045" width="512" xmlns="http://www.w3.org/2000/svg"><g><path d="m256.023 104.57c-83.511 0-151.452 67.941-151.452 151.452s67.941 151.452 151.452 151.452 151.452-67.941 151.452-151.452-67.942-151.452-151.452-151.452zm0 272.905c-66.969 0-121.452-54.483-121.452-121.452s54.483-121.453 121.452-121.453 121.452 54.483 121.452 121.452-54.484 121.453-121.452 121.453z"/><path d="m327.927 86.971c1.916.815 3.906 1.201 5.864 1.201 5.835 0 11.383-3.425 13.811-9.133l16.561-38.939c3.242-7.624-.31-16.432-7.933-19.674-7.626-3.244-16.433.309-19.675 7.932l-16.561 38.939c-3.242 7.623.31 16.432 7.933 19.674z"/><path d="m184.119 425.074c-7.623-3.243-16.432.309-19.674 7.932l-16.562 38.939c-3.243 7.624.309 16.432 7.932 19.674 1.915.815 3.906 1.201 5.864 1.201 5.834 0 11.382-3.425 13.81-9.133l16.562-38.938c3.243-7.624-.309-16.433-7.932-19.675z"/><path d="m28.358 175.489 38.939 16.562c1.916.815 3.906 1.201 5.864 1.201 5.834 0 11.383-3.426 13.81-9.133 3.243-7.624-.309-16.432-7.932-19.674l-38.939-16.563c-7.624-3.242-16.432.309-19.674 7.932-3.243 7.624.308 16.433 7.932 19.675z"/><path d="m483.688 336.556-38.938-16.562c-7.621-3.24-16.432.309-19.675 7.932-3.242 7.624.31 16.432 7.933 19.674l38.938 16.562c1.916.815 3.905 1.201 5.864 1.201 5.834 0 11.383-3.426 13.811-9.133 3.241-7.623-.31-16.432-7.933-19.674z"/><path d="m167.808 77.338c2.357 5.846 7.978 9.395 13.917 9.395 1.867 0 3.766-.351 5.604-1.092 7.684-3.098 11.401-11.837 8.303-19.521l-15.823-39.245c-3.098-7.684-11.837-11.403-19.52-8.303-7.684 3.098-11.401 11.837-8.303 19.521z"/><path d="m344.237 434.707c-3.099-7.683-11.839-11.402-19.521-8.302-7.683 3.098-11.4 11.837-8.303 19.521l15.823 39.245c2.357 5.845 7.978 9.395 13.917 9.395 1.867 0 3.767-.351 5.604-1.092 7.683-3.098 11.4-11.837 8.303-19.521z"/><path d="m85.641 324.716c-3.097-7.684-11.837-11.401-19.521-8.303l-39.245 15.823c-7.684 3.098-11.401 11.837-8.303 19.521 2.356 5.846 7.978 9.395 13.917 9.395 1.867 0 3.766-.351 5.604-1.092l39.245-15.823c7.684-3.098 11.401-11.837 8.303-19.521z"/><path d="m426.403 187.329c2.357 5.846 7.979 9.395 13.917 9.395 1.867 0 3.767-.351 5.604-1.092l39.245-15.823c7.683-3.098 11.4-11.838 8.303-19.521-3.099-7.684-11.838-11.402-19.521-8.303l-39.245 15.823c-7.682 3.098-11.4 11.838-8.303 19.521z"/><path d="m256.023 72.314c8.284 0 15-6.716 15-15v-42.314c0-8.284-6.716-15-15-15s-15 6.716-15 15v42.314c0 8.285 6.715 15 15 15z"/><path d="m256.023 439.73c-8.284 0-15 6.716-15 15v42.315c0 8.284 6.716 15 15 15s15-6.716 15-15v-42.315c0-8.284-6.716-15-15-15z"/><path d="m72.315 256.022c0-8.284-6.716-15-15-15h-42.315c-8.284 0-15 6.716-15 15s6.716 15 15 15h42.315c8.284 0 15-6.715 15-15z"/><path d="m497.045 241.023h-42.314c-8.284 0-15 6.716-15 15s6.716 15 15 15h42.314c8.284 0 15-6.716 15-15 0-8.285-6.716-15-15-15z"/><path d="m104.908 126.121c2.929 2.929 6.768 4.394 10.606 4.394 3.839 0 7.678-1.464 10.606-4.394 5.858-5.858 5.858-15.355 0-21.213l-29.92-29.921c-5.857-5.858-15.355-5.858-21.213 0s-5.858 15.355 0 21.213z"/><path d="m407.137 385.924c-5.857-5.858-15.355-5.858-21.213 0s-5.858 15.355 0 21.213l29.921 29.921c2.929 2.929 6.767 4.393 10.606 4.393s7.678-1.464 10.606-4.393c5.858-5.858 5.858-15.355 0-21.213z"/><path d="m104.908 385.924-29.921 29.921c-5.858 5.858-5.858 15.355 0 21.213 2.929 2.929 6.768 4.393 10.606 4.393 3.839 0 7.678-1.464 10.606-4.393l29.921-29.921c5.858-5.858 5.858-15.355 0-21.213-5.856-5.859-15.354-5.859-21.212 0z"/><path d="m396.53 130.515c3.839 0 7.678-1.464 10.607-4.394l29.921-29.921c5.858-5.858 5.858-15.355 0-21.213-5.857-5.858-15.355-5.858-21.213 0l-29.921 29.921c-5.858 5.858-5.858 15.355 0 21.213 2.929 2.929 6.767 4.394 10.606 4.394z"/></g></svg>